<?xml version="1.0" standalone="no"?>
<svg xmlns:xlink="http://www.w3.org/1999/xlink" id="wave" style="transform:rotate(180deg); transition: 0.3s" viewBox="0 0 1440 300" version="1.1" xmlns="http://www.w3.org/2000/svg"><defs><linearGradient id="sw-gradient-0" x1="0" x2="0" y1="1" y2="0"><stop stop-color="rgba(255, 255, 255, 0.58)" offset="0%"/><stop stop-color="rgba(255, 255, 255, 0.56)" offset="100%"/></linearGradient></defs><path style="transform:translate(0, 0px); opacity:1" fill="url(#sw-gradient-0)" d="M0,180L17.1,160C34.3,140,69,100,103,90C137.1,80,171,100,206,130C240,160,274,200,309,205C342.9,210,377,180,411,155C445.7,130,480,110,514,130C548.6,150,583,210,617,210C651.4,210,686,150,720,140C754.3,130,789,170,823,170C857.1,170,891,130,926,140C960,150,994,210,1029,240C1062.9,270,1097,270,1131,255C1165.7,240,1200,210,1234,205C1268.6,200,1303,220,1337,225C1371.4,230,1406,220,1440,195C1474.3,170,1509,130,1543,135C1577.1,140,1611,190,1646,220C1680,250,1714,260,1749,260C1782.9,260,1817,250,1851,250C1885.7,250,1920,260,1954,240C1988.6,220,2023,170,2057,170C2091.4,170,2126,220,2160,215C2194.3,210,2229,150,2263,140C2297.1,130,2331,170,2366,155C2400,140,2434,70,2451,35L2468.6,0L2468.6,300L2451.4,300C2434.3,300,2400,300,2366,300C2331.4,300,2297,300,2263,300C2228.6,300,2194,300,2160,300C2125.7,300,2091,300,2057,300C2022.9,300,1989,300,1954,300C1920,300,1886,300,1851,300C1817.1,300,1783,300,1749,300C1714.3,300,1680,300,1646,300C1611.4,300,1577,300,1543,300C1508.6,300,1474,300,1440,300C1405.7,300,1371,300,1337,300C1302.9,300,1269,300,1234,300C1200,300,1166,300,1131,300C1097.1,300,1063,300,1029,300C994.3,300,960,300,926,300C891.4,300,857,300,823,300C788.6,300,754,300,720,300C685.7,300,651,300,617,300C582.9,300,549,300,514,300C480,300,446,300,411,300C377.1,300,343,300,309,300C274.3,300,240,300,206,300C171.4,300,137,300,103,300C68.6,300,34,300,17,300L0,300Z"/></svg>