<?xml version="1.0" standalone="no"?>
<svg xmlns:xlink="http://www.w3.org/1999/xlink" id="wave" style="transform:rotate(180deg); transition: 0.3s" viewBox="0 0 1440 140" version="1.1" xmlns="http://www.w3.org/2000/svg"><defs><linearGradient id="sw-gradient-0" x1="0" x2="0" y1="1" y2="0"><stop stop-color="rgba(255, 255, 255, 1)" offset="0%"/><stop stop-color="rgba(255, 255, 255, 1)" offset="100%"/></linearGradient></defs><path style="transform:translate(0, 0px); opacity:1" fill="url(#sw-gradient-0)" d="M0,112L10,98C20,84,40,56,60,37.3C80,19,100,9,120,21C140,33,160,65,180,79.3C200,93,220,89,240,72.3C260,56,280,28,300,28C320,28,340,56,360,74.7C380,93,400,103,420,95.7C440,89,460,65,480,67.7C500,70,520,98,540,112C560,126,580,126,600,109.7C620,93,640,61,660,58.3C680,56,700,84,720,81.7C740,79,760,47,780,49C800,51,820,89,840,102.7C860,117,880,107,900,107.3C920,107,940,117,960,121.3C980,126,1000,126,1020,107.3C1040,89,1060,51,1080,44.3C1100,37,1120,61,1140,58.3C1160,56,1180,28,1200,21C1220,14,1240,28,1260,32.7C1280,37,1300,33,1320,44.3C1340,56,1360,84,1380,95.7C1400,107,1420,103,1430,100.3L1440,98L1440,140L1430,140C1420,140,1400,140,1380,140C1360,140,1340,140,1320,140C1300,140,1280,140,1260,140C1240,140,1220,140,1200,140C1180,140,1160,140,1140,140C1120,140,1100,140,1080,140C1060,140,1040,140,1020,140C1000,140,980,140,960,140C940,140,920,140,900,140C880,140,860,140,840,140C820,140,800,140,780,140C760,140,740,140,720,140C700,140,680,140,660,140C640,140,620,140,600,140C580,140,560,140,540,140C520,140,500,140,480,140C460,140,440,140,420,140C400,140,380,140,360,140C340,140,320,140,300,140C280,140,260,140,240,140C220,140,200,140,180,140C160,140,140,140,120,140C100,140,80,140,60,140C40,140,20,140,10,140L0,140Z"/></svg>